<svg width="46" height="45" viewBox="0 0 46 45" fill="none" xmlns="http://www.w3.org/2000/svg">
<g clip-path="url(#clip0_61_39)">
<rect width="46" height="45" fill="#1C1C1E"/>
<path d="M1.66666 14.9117H-2.38419e-06L-2.38419e-06 -0.266502L1.66666 -0.266502L1.66666 14.9117Z" fill="#C4C8CF"/>
<path d="M13.9388 -0.500004V1.25127H0L0 -0.500004H13.9388Z" fill="#C4C8CF"/>
<path d="M1.66666 30.0883H-2.38419e-06L-2.38419e-06 45.2665H1.66666L1.66666 30.0883Z" fill="#C4C8CF"/>
<path d="M13.9388 45.5V43.7487H0L0 45.5H13.9388Z" fill="#C4C8CF"/>
<path d="M44.3333 14.9117H46V-0.266502L44.3333 -0.266502V14.9117Z" fill="#C4C8CF"/>
<path d="M32.0612 -0.500004V1.25127H46V-0.500004H32.0612Z" fill="#C4C8CF"/>
<path d="M44.3333 30.0883H46V45.2665H44.3333V30.0883Z" fill="#C4C8CF"/>
<path d="M32.0612 45.5V43.7487H46V45.5H32.0612Z" fill="#C4C8CF"/>
<path d="M14 11.7333C14 11.7333 17.6232 2.73334 23 2.73334C28.3768 2.73334 32 11.7333 32 11.7333" stroke="#C4C8CF"/>
<path d="M34.75 41.4833H11.25V12.0156C11.2639 12.0173 11.2781 12.0196 11.293 12.0214C11.5026 12.0471 11.8075 12.0839 12.1875 12.1279C12.9475 12.2159 14.0099 12.3338 15.2188 12.4511C17.6344 12.6856 20.6442 12.9208 23 12.9208C25.3558 12.9208 28.3656 12.6856 30.7812 12.4511C31.9901 12.3338 33.0525 12.2159 33.8125 12.1279C34.1925 12.0839 34.4974 12.0471 34.707 12.0214C34.7219 12.0196 34.7361 12.0173 34.75 12.0156V41.4833Z" fill="#6B8F71" stroke="#C4C8CF" stroke-width="0.5"/>
</g>
<defs>
<clipPath id="clip0_61_39">
<rect width="46" height="45" fill="white"/>
</clipPath>
</defs>
</svg>
